# xmcd
#
# Track frame offsets:
#	150
#	4597
#	19015
#	32833
#	52956
#	65314
#	78299
#	91155
#	107894
#	121661
#	138420
#	150660
#	167745
#
# Disc length: 2623 seconds
# Revision: 0
# Processed by: cddbd v1.5.2PL0 Copyright (c) Steve Scherf et al.
# Submitted via: dBpowerAMP V12.0
#
DISCID=920a3d0d
DTITLE=Aborted - Global Flatline
DYEAR=2012
DGENRE=Metal
TTITLE0=Omega Mortis
TTITLE1=Global Flatline
TTITLE2=Источник Болезни (The Origin of Disease)
TTITLE3=Coronary Reconstruction
TTITLE4=Fecal Forgery
TTITLE5=Of Scabs and Boils
TTITLE6=Vermicular, Obscene, Obese
TTITLE7=Expurgation Euphoria
TTITLE8=From a Tepid Whiff
TTITLE9=The Kallinger Theory
TTITLE10=Our Father, Who Art of Feces
TTITLE11=Grime
TTITLE12=Endstille
EXTD=
EXTT0=
EXTT1=
EXTT2=
EXTT3=
EXTT4=
EXTT5=
EXTT6=
EXTT7=
EXTT8=
EXTT9=
EXTT10=
EXTT11=
EXTT12=
PLAYORDER=
